<mxfile host="app.diagrams.net" modified="2022-08-18T13:20:00.623Z" agent="5.0 (Macintosh; Intel Mac OS X 10_15_7) AppleWebKit/537.36 (KHTML, like Gecko) Chrome/104.0.0.0 Safari/537.36" etag="nmtkdKxBu5vGP4VY3Hjo" version="20.2.2" type="github">
  <diagram id="C5RBs43oDa-KdzZeNtuy" name="Page-1">
    <mxGraphModel dx="1261" dy="819" grid="1" gridSize="10" guides="1" tooltips="1" connect="1" arrows="1" fold="1" page="1" pageScale="1" pageWidth="827" pageHeight="1169" math="0" shadow="0">
      <root>
        <mxCell id="WIyWlLk6GJQsqaUBKTNV-0" />
        <mxCell id="WIyWlLk6GJQsqaUBKTNV-1" parent="WIyWlLk6GJQsqaUBKTNV-0" />
        <mxCell id="WIyWlLk6GJQsqaUBKTNV-2" value="" style="rounded=0;html=1;jettySize=auto;orthogonalLoop=1;fontSize=11;endArrow=block;endFill=0;endSize=8;strokeWidth=1;shadow=0;labelBackgroundColor=none;edgeStyle=orthogonalEdgeStyle;" parent="WIyWlLk6GJQsqaUBKTNV-1" source="WIyWlLk6GJQsqaUBKTNV-3" target="WIyWlLk6GJQsqaUBKTNV-6" edge="1">
          <mxGeometry relative="1" as="geometry" />
        </mxCell>
        <mxCell id="WIyWlLk6GJQsqaUBKTNV-3" value="ยืนยันตัวตน" style="rounded=1;whiteSpace=wrap;html=1;fontSize=12;glass=0;strokeWidth=1;shadow=0;" parent="WIyWlLk6GJQsqaUBKTNV-1" vertex="1">
          <mxGeometry x="25" y="100" width="120" height="40" as="geometry" />
        </mxCell>
        <mxCell id="WIyWlLk6GJQsqaUBKTNV-5" value="ไม่สำเร็จ" style="edgeStyle=orthogonalEdgeStyle;rounded=0;html=1;jettySize=auto;orthogonalLoop=1;fontSize=11;endArrow=block;endFill=0;endSize=8;strokeWidth=1;shadow=0;labelBackgroundColor=none;" parent="WIyWlLk6GJQsqaUBKTNV-1" source="WIyWlLk6GJQsqaUBKTNV-6" target="WIyWlLk6GJQsqaUBKTNV-7" edge="1">
          <mxGeometry y="10" relative="1" as="geometry">
            <mxPoint as="offset" />
          </mxGeometry>
        </mxCell>
        <mxCell id="Ni7bxn2DUjmmPI4IMF6q-20" style="edgeStyle=orthogonalEdgeStyle;rounded=0;orthogonalLoop=1;jettySize=auto;html=1;entryX=0.5;entryY=0;entryDx=0;entryDy=0;endArrow=block;endFill=0;" edge="1" parent="WIyWlLk6GJQsqaUBKTNV-1" source="WIyWlLk6GJQsqaUBKTNV-6" target="Ni7bxn2DUjmmPI4IMF6q-17">
          <mxGeometry relative="1" as="geometry" />
        </mxCell>
        <mxCell id="WIyWlLk6GJQsqaUBKTNV-6" value="ยืนยันตัวตน&lt;br&gt;สำเร็จ" style="rhombus;whiteSpace=wrap;html=1;shadow=0;fontFamily=Helvetica;fontSize=12;align=center;strokeWidth=1;spacing=6;spacingTop=-4;" parent="WIyWlLk6GJQsqaUBKTNV-1" vertex="1">
          <mxGeometry x="30" y="180" width="110" height="70" as="geometry" />
        </mxCell>
        <mxCell id="Ni7bxn2DUjmmPI4IMF6q-8" style="edgeStyle=orthogonalEdgeStyle;rounded=0;orthogonalLoop=1;jettySize=auto;html=1;endArrow=block;endFill=0;entryX=0.5;entryY=0;entryDx=0;entryDy=0;" edge="1" parent="WIyWlLk6GJQsqaUBKTNV-1" source="WIyWlLk6GJQsqaUBKTNV-7" target="Ni7bxn2DUjmmPI4IMF6q-56">
          <mxGeometry relative="1" as="geometry">
            <mxPoint x="590" y="230" as="targetPoint" />
          </mxGeometry>
        </mxCell>
        <mxCell id="WIyWlLk6GJQsqaUBKTNV-7" value="ยืนยันตัวตนไม่สำเร็จ" style="rounded=1;whiteSpace=wrap;html=1;fontSize=12;glass=0;strokeWidth=1;shadow=0;" parent="WIyWlLk6GJQsqaUBKTNV-1" vertex="1">
          <mxGeometry x="320" y="195" width="120" height="40" as="geometry" />
        </mxCell>
        <mxCell id="Ni7bxn2DUjmmPI4IMF6q-3" style="edgeStyle=orthogonalEdgeStyle;rounded=0;orthogonalLoop=1;jettySize=auto;html=1;endArrow=block;endFill=0;" edge="1" parent="WIyWlLk6GJQsqaUBKTNV-1" source="Ni7bxn2DUjmmPI4IMF6q-0" target="WIyWlLk6GJQsqaUBKTNV-3">
          <mxGeometry relative="1" as="geometry" />
        </mxCell>
        <mxCell id="Ni7bxn2DUjmmPI4IMF6q-0" value="เริ่มต้น" style="ellipse;whiteSpace=wrap;html=1;rounded=1;glass=0;strokeWidth=1;shadow=0;" vertex="1" parent="WIyWlLk6GJQsqaUBKTNV-1">
          <mxGeometry x="40" y="30" width="90" height="40" as="geometry" />
        </mxCell>
        <mxCell id="Ni7bxn2DUjmmPI4IMF6q-4" value="สิ้นสุด" style="ellipse;whiteSpace=wrap;html=1;rounded=1;glass=0;strokeWidth=1;shadow=0;" vertex="1" parent="WIyWlLk6GJQsqaUBKTNV-1">
          <mxGeometry x="680" y="235" width="120" height="60" as="geometry" />
        </mxCell>
        <mxCell id="Ni7bxn2DUjmmPI4IMF6q-34" value="" style="edgeStyle=orthogonalEdgeStyle;rounded=0;orthogonalLoop=1;jettySize=auto;html=1;endArrow=block;endFill=0;" edge="1" parent="WIyWlLk6GJQsqaUBKTNV-1" source="Ni7bxn2DUjmmPI4IMF6q-17" target="Ni7bxn2DUjmmPI4IMF6q-33">
          <mxGeometry relative="1" as="geometry" />
        </mxCell>
        <mxCell id="Ni7bxn2DUjmmPI4IMF6q-17" value="&lt;meta charset=&quot;utf-8&quot;&gt;&lt;span style=&quot;color: rgb(0, 0, 0); font-family: Helvetica; font-size: 12px; font-style: normal; font-variant-ligatures: normal; font-variant-caps: normal; font-weight: 400; letter-spacing: normal; orphans: 2; text-align: center; text-indent: 0px; text-transform: none; widows: 2; word-spacing: 0px; -webkit-text-stroke-width: 0px; background-color: rgb(248, 249, 250); text-decoration-thickness: initial; text-decoration-style: initial; text-decoration-color: initial; float: none; display: inline !important;&quot;&gt;ดึงข้อมูลจาก Table&lt;/span&gt;&lt;br style=&quot;color: rgb(0, 0, 0); font-family: Helvetica; font-size: 12px; font-style: normal; font-variant-ligatures: normal; font-variant-caps: normal; font-weight: 400; letter-spacing: normal; orphans: 2; text-align: center; text-indent: 0px; text-transform: none; widows: 2; word-spacing: 0px; -webkit-text-stroke-width: 0px; background-color: rgb(248, 249, 250); text-decoration-thickness: initial; text-decoration-style: initial; text-decoration-color: initial;&quot;&gt;&lt;span style=&quot;color: rgb(0, 0, 0); font-family: Helvetica; font-size: 12px; font-style: normal; font-variant-ligatures: normal; font-variant-caps: normal; font-weight: 400; letter-spacing: normal; orphans: 2; text-align: center; text-indent: 0px; text-transform: none; widows: 2; word-spacing: 0px; -webkit-text-stroke-width: 0px; background-color: rgb(248, 249, 250); text-decoration-thickness: initial; text-decoration-style: initial; text-decoration-color: initial; float: none; display: inline !important;&quot;&gt;Config&lt;/span&gt;" style="rounded=1;whiteSpace=wrap;html=1;" vertex="1" parent="WIyWlLk6GJQsqaUBKTNV-1">
          <mxGeometry x="25" y="310" width="120" height="60" as="geometry" />
        </mxCell>
        <mxCell id="Ni7bxn2DUjmmPI4IMF6q-21" value="สำเร็จ" style="text;html=1;align=center;verticalAlign=middle;resizable=0;points=[];autosize=1;strokeColor=none;fillColor=none;" vertex="1" parent="WIyWlLk6GJQsqaUBKTNV-1">
          <mxGeometry x="90" y="270" width="50" height="30" as="geometry" />
        </mxCell>
        <mxCell id="Ni7bxn2DUjmmPI4IMF6q-27" style="edgeStyle=orthogonalEdgeStyle;rounded=0;orthogonalLoop=1;jettySize=auto;html=1;entryX=0;entryY=0.5;entryDx=0;entryDy=0;endArrow=block;endFill=0;" edge="1" parent="WIyWlLk6GJQsqaUBKTNV-1" source="Ni7bxn2DUjmmPI4IMF6q-22" target="Ni7bxn2DUjmmPI4IMF6q-56">
          <mxGeometry relative="1" as="geometry" />
        </mxCell>
        <mxCell id="Ni7bxn2DUjmmPI4IMF6q-22" value="ส่ง Error Message เเละ Error Code 99" style="whiteSpace=wrap;html=1;rounded=1;" vertex="1" parent="WIyWlLk6GJQsqaUBKTNV-1">
          <mxGeometry x="320" y="255" width="120" height="60" as="geometry" />
        </mxCell>
        <mxCell id="Ni7bxn2DUjmmPI4IMF6q-44" value="" style="edgeStyle=orthogonalEdgeStyle;rounded=0;orthogonalLoop=1;jettySize=auto;html=1;endArrow=block;endFill=0;" edge="1" parent="WIyWlLk6GJQsqaUBKTNV-1" source="Ni7bxn2DUjmmPI4IMF6q-24" target="Ni7bxn2DUjmmPI4IMF6q-43">
          <mxGeometry relative="1" as="geometry" />
        </mxCell>
        <mxCell id="Ni7bxn2DUjmmPI4IMF6q-24" value="ตรวจสอบข้อมูล" style="whiteSpace=wrap;html=1;rounded=1;" vertex="1" parent="WIyWlLk6GJQsqaUBKTNV-1">
          <mxGeometry x="25" y="584" width="120" height="60" as="geometry" />
        </mxCell>
        <mxCell id="Ni7bxn2DUjmmPI4IMF6q-35" style="edgeStyle=orthogonalEdgeStyle;rounded=0;orthogonalLoop=1;jettySize=auto;html=1;entryX=0;entryY=0.5;entryDx=0;entryDy=0;endArrow=block;endFill=0;" edge="1" parent="WIyWlLk6GJQsqaUBKTNV-1" source="Ni7bxn2DUjmmPI4IMF6q-33" target="Ni7bxn2DUjmmPI4IMF6q-22">
          <mxGeometry relative="1" as="geometry" />
        </mxCell>
        <mxCell id="Ni7bxn2DUjmmPI4IMF6q-37" value="" style="edgeStyle=orthogonalEdgeStyle;rounded=0;orthogonalLoop=1;jettySize=auto;html=1;endArrow=block;endFill=0;" edge="1" parent="WIyWlLk6GJQsqaUBKTNV-1" source="Ni7bxn2DUjmmPI4IMF6q-33" target="Ni7bxn2DUjmmPI4IMF6q-24">
          <mxGeometry relative="1" as="geometry" />
        </mxCell>
        <mxCell id="Ni7bxn2DUjmmPI4IMF6q-33" value="ดึงข้อมูล" style="rhombus;whiteSpace=wrap;html=1;rounded=1;" vertex="1" parent="WIyWlLk6GJQsqaUBKTNV-1">
          <mxGeometry x="45" y="440" width="80" height="80" as="geometry" />
        </mxCell>
        <mxCell id="Ni7bxn2DUjmmPI4IMF6q-36" value="ไม่สำเร็จ" style="text;html=1;align=center;verticalAlign=middle;resizable=0;points=[];autosize=1;strokeColor=none;fillColor=none;" vertex="1" parent="WIyWlLk6GJQsqaUBKTNV-1">
          <mxGeometry x="125" y="435" width="70" height="30" as="geometry" />
        </mxCell>
        <mxCell id="Ni7bxn2DUjmmPI4IMF6q-38" value="สำเร็จ" style="text;html=1;align=center;verticalAlign=middle;resizable=0;points=[];autosize=1;strokeColor=none;fillColor=none;" vertex="1" parent="WIyWlLk6GJQsqaUBKTNV-1">
          <mxGeometry x="95" y="540" width="50" height="30" as="geometry" />
        </mxCell>
        <mxCell id="Ni7bxn2DUjmmPI4IMF6q-47" value="" style="edgeStyle=orthogonalEdgeStyle;rounded=0;orthogonalLoop=1;jettySize=auto;html=1;endArrow=block;endFill=0;" edge="1" parent="WIyWlLk6GJQsqaUBKTNV-1" source="Ni7bxn2DUjmmPI4IMF6q-43" target="Ni7bxn2DUjmmPI4IMF6q-46">
          <mxGeometry relative="1" as="geometry">
            <Array as="points">
              <mxPoint x="350" y="550" />
              <mxPoint x="270" y="550" />
              <mxPoint x="270" y="380" />
            </Array>
          </mxGeometry>
        </mxCell>
        <mxCell id="Ni7bxn2DUjmmPI4IMF6q-51" value="" style="edgeStyle=orthogonalEdgeStyle;rounded=0;orthogonalLoop=1;jettySize=auto;html=1;endArrow=block;endFill=0;entryX=0.5;entryY=0;entryDx=0;entryDy=0;" edge="1" parent="WIyWlLk6GJQsqaUBKTNV-1" source="Ni7bxn2DUjmmPI4IMF6q-43" target="Ni7bxn2DUjmmPI4IMF6q-53">
          <mxGeometry relative="1" as="geometry">
            <mxPoint x="85" y="820" as="targetPoint" />
          </mxGeometry>
        </mxCell>
        <mxCell id="Ni7bxn2DUjmmPI4IMF6q-43" value="มีข้อมูล" style="rhombus;whiteSpace=wrap;html=1;rounded=1;" vertex="1" parent="WIyWlLk6GJQsqaUBKTNV-1">
          <mxGeometry x="310" y="574" width="80" height="80" as="geometry" />
        </mxCell>
        <mxCell id="Ni7bxn2DUjmmPI4IMF6q-48" style="edgeStyle=orthogonalEdgeStyle;rounded=0;orthogonalLoop=1;jettySize=auto;html=1;entryX=0;entryY=1;entryDx=0;entryDy=0;endArrow=block;endFill=0;" edge="1" parent="WIyWlLk6GJQsqaUBKTNV-1" source="Ni7bxn2DUjmmPI4IMF6q-46" target="Ni7bxn2DUjmmPI4IMF6q-56">
          <mxGeometry relative="1" as="geometry" />
        </mxCell>
        <mxCell id="Ni7bxn2DUjmmPI4IMF6q-46" value="ส่ง Error Message ไม่พบข้อมูลการประชุม เเละ Error Code 2" style="whiteSpace=wrap;html=1;rounded=1;" vertex="1" parent="WIyWlLk6GJQsqaUBKTNV-1">
          <mxGeometry x="320" y="350" width="120" height="60" as="geometry" />
        </mxCell>
        <mxCell id="Ni7bxn2DUjmmPI4IMF6q-49" value="ไม่พบข้อมูล" style="text;html=1;align=center;verticalAlign=middle;resizable=0;points=[];autosize=1;strokeColor=none;fillColor=none;" vertex="1" parent="WIyWlLk6GJQsqaUBKTNV-1">
          <mxGeometry x="280" y="510" width="80" height="30" as="geometry" />
        </mxCell>
        <mxCell id="Ni7bxn2DUjmmPI4IMF6q-52" value="พบข้อมูล" style="text;html=1;align=center;verticalAlign=middle;resizable=0;points=[];autosize=1;strokeColor=none;fillColor=none;" vertex="1" parent="WIyWlLk6GJQsqaUBKTNV-1">
          <mxGeometry x="379" y="614" width="70" height="30" as="geometry" />
        </mxCell>
        <mxCell id="Ni7bxn2DUjmmPI4IMF6q-57" style="edgeStyle=orthogonalEdgeStyle;rounded=0;orthogonalLoop=1;jettySize=auto;html=1;entryX=1;entryY=1;entryDx=0;entryDy=0;endArrow=block;endFill=0;" edge="1" parent="WIyWlLk6GJQsqaUBKTNV-1" source="Ni7bxn2DUjmmPI4IMF6q-53" target="Ni7bxn2DUjmmPI4IMF6q-56">
          <mxGeometry relative="1" as="geometry" />
        </mxCell>
        <mxCell id="Ni7bxn2DUjmmPI4IMF6q-53" value="ส่งข้อมูลการประชุม" style="whiteSpace=wrap;html=1;rounded=1;" vertex="1" parent="WIyWlLk6GJQsqaUBKTNV-1">
          <mxGeometry x="460" y="480" width="120" height="60" as="geometry" />
        </mxCell>
        <mxCell id="Ni7bxn2DUjmmPI4IMF6q-58" value="" style="edgeStyle=orthogonalEdgeStyle;rounded=0;orthogonalLoop=1;jettySize=auto;html=1;endArrow=block;endFill=0;" edge="1" parent="WIyWlLk6GJQsqaUBKTNV-1" source="Ni7bxn2DUjmmPI4IMF6q-56" target="Ni7bxn2DUjmmPI4IMF6q-4">
          <mxGeometry relative="1" as="geometry" />
        </mxCell>
        <mxCell id="Ni7bxn2DUjmmPI4IMF6q-56" value="" style="ellipse;whiteSpace=wrap;html=1;aspect=fixed;" vertex="1" parent="WIyWlLk6GJQsqaUBKTNV-1">
          <mxGeometry x="610" y="250" width="30" height="30" as="geometry" />
        </mxCell>
      </root>
    </mxGraphModel>
  </diagram>
</mxfile>
